# xmcd
#
# Track frame offsets: 
#        150
#        16653
#        39516
#        57209
#        71197
#        82154
#        97069
#        107350
#        116765
#        132716
#        144429
#        157255
#        171902
#        184655
#        197315
#        210509
#        223404
#        237074
#        246809
#        259314
#
# Disc length: 3688 seconds
#
# Revision: 0
# Processed by: cddbd v1.5.2PL0 Copyright (c) Steve Scherf et al.
# Submitted via: ExactAudioCopy v1.3
#
DISCID=2a0e6614
DTITLE=Various Artist - The Legends of Road Music CD 1
DYEAR=2000
DGENRE=Country
TTITLE0=David Allan Coe - Drivin' My Life Away
TTITLE1=Red Sovine - Teddy Bear
TTITLE2=T. H. Music Fest - Convoy
TTITLE3=David Frizzell - Sunny Side of the Mountain
TTITLE4=Dave Dudley - Six Days on the Road
TTITLE5=Red Simpson - I'm A Truck
TTITLE6=Del Reeves - Looking At The World Through A Windshield
TTITLE7=David Allan Coe - Tombstone Every Mile
TTITLE8=Red Sovine - Phantom 309
TTITLE9=Willis Brothers - Give Me 40 Acres (To Turn This Rig Around)
TTITLE10=Claude Gray - How Fast Them Trucks Can Go
TTITLE11=David Frizzell - 18 Wheels Hummin' Home Sweet Home
TTITLE12=Jimmy Martin - Widow Maker
TTITLE13=Coleman Wilson - Passing Zone Blues
TTITLE14=Red Sovine - Truck Driver's Prayer
TTITLE15=Red Simpson - Roll Truck Roll
TTITLE16=Tiny Harris - Endless Black Ribbon
TTITLE17=Moore and Napier - Truck Driver's Queen
TTITLE18=Grandpa Jones - Eight More Miles to Louisville
TTITLE19=Johnny Bond and Red Sovine - Gear Jammer And The Hobo
EXTD=
EXTT0=
EXTT1=
EXTT2=
EXTT3=
EXTT4=
EXTT5=
EXTT6=
EXTT7=
EXTT8=
EXTT9=
EXTT10=
EXTT11=
EXTT12=
EXTT13=
EXTT14=
EXTT15=
EXTT16=
EXTT17=
EXTT18=
EXTT19=
PLAYORDER=
